<svg xmlns="http://www.w3.org/2000/svg" viewBox="0 0 27 27"><path d="M1 1h7v7h-7zM12 1h1v1h1v2h-1v-1h-2v1h2v1h1v1h-1v1h-1v-2h-1v2h-1v1h1v1h-2v-6h1v-1h2zM15 1h1v1h-1zM19 1h7v7h-7zM2 2v5h5v-5zM16 2h1v1h-1zM20 2v5h5v-5zM3 3h3v3h-3zM15 3h1v1h-1zM17 3h1v1h-1zM21 3h3v3h-3zM14 4h1v1h-1zM15 5h1v1h-1zM14 6h1v1h-1zM16 6h1v1h-1zM11 7h1v1h-1zM13 7h1v2h-1zM15 7h1v1h1v1h1v1h-2v-1h-1zM17 7h1v1h-1zM1 9h1v1h-1zM3 9h5v1h-1v1h-1v2h-1v1h1v3h-1v1h-1v-1h-1v-2h-1v3h-1v-4h3v-1h-1v-1h1v-2h-1zM12 9h1v1h-1zM14 9h1v1h1v1h-1v1h-1v1h1v1h-3v-1h-2v-1h3v-1h1zM19 9h5v1h-5zM2 10h1v1h-1zM9 10h3v1h-2v1h-3v-1h2zM18 10h1v1h-1zM24 10h1v1h1v3h-1v1h1v2h-1v-1h-1v-2h-1v-1h2v-1h-1zM16 11h1v1h-1zM19 11h2v1h-2zM22 11h1v1h-1zM1 12h1v1h-1zM17 12h1v1h-1zM21 12h1v2h-3v-1h2zM6 13h2v1h-2zM9 13h1v2h5v-1h1v1h1v2h-1v-1h-3v1h2v1h-1v2h-1v-2h-1v-1h-1v-1h-2v1h2v1h-1v1h-1v-1h-3v-1h2v-1h-1v-1h1v-1h1zM22 14h1v3h-1zM18 15h1v1h-1zM20 15h1v1h-1zM17 17h5v1h1v-1h1v2h2v2h-2v-1h-1v1h1v1h2v4h-8v-1h1v-1h4v1h2v-2h-1v1h-1v-2h-1v1h-3v-1h-1v1h-2v1h-3v-1h-1v1h-3v-4h1v-1h1v-1h1v3h-2v1h4v1h1v-1h1v-2h1zM15 18h1v1h-1zM18 18v3h3v-3zM1 19h7v7h-7zM19 19h1v1h-1zM2 20v5h5v-5zM3 21h3v3h-3zM14 21h1v1h-1zM18 23h1v1h-1zM12 24h1v1h-1zM17 24h1v1h-1zM9 25h1v1h-1zM14 25h1v1h-1zM16 25h1v1h-1z"/></svg>