<?xml version="1.0" standalone="no"?>
<!DOCTYPE svg PUBLIC "-//W3C//DTD SVG 20010904//EN"
 "http://www.w3.org/TR/2001/REC-SVG-20010904/DTD/svg10.dtd">
<svg version="1.0" xmlns="http://www.w3.org/2000/svg"
 width="1920.000000pt" height="1080.000000pt" viewBox="0 0 1920.000000 1080.000000"
 preserveAspectRatio="xMidYMid meet">

<g transform="translate(0.000000,1080.000000) scale(0.100000,-0.100000)"
fill="#000000" stroke="none">
<path d="M1940 6855 c0 -3539 2 -3949 15 -3983 62 -148 256 -163 340 -27 l30
48 3 3954 2 3953 -195 0 -195 0 0 -3945z"/>
<path d="M4600 6403 c0 -2995 3 -4410 10 -4435 21 -76 102 -138 180 -138 78 0
159 62 180 138 7 25 10 1440 10 4435 l0 4397 -190 0 -190 0 0 -4397z"/>
<path d="M14390 6505 c0 -3084 3 -4308 11 -4345 19 -91 90 -151 179 -152 62 0
115 25 154 75 l31 39 3 4339 2 4339 -190 0 -190 0 0 -4295z"/>
<path d="M16940 6867 l0 -3933 23 -44 c32 -64 82 -100 148 -107 46 -4 62 -1
109 24 43 23 59 39 80 78 l25 49 3 3933 2 3933 -195 0 -195 0 0 -3933z"/>
</g>
</svg>
