<?xml version="1.0" standalone="no"?>
<!DOCTYPE svg PUBLIC "-//W3C//DTD SVG 20010904//EN"
 "http://www.w3.org/TR/2001/REC-SVG-20010904/DTD/svg10.dtd">
<svg version="1.0" xmlns="http://www.w3.org/2000/svg"
 width="721.000000pt" height="663.000000pt" viewBox="0 0 721.000000 663.000000"
 preserveAspectRatio="xMidYMid meet">

<g transform="translate(0.000000,663.000000) scale(0.100000,-0.100000)"
fill="#000000" stroke="none">
<path d="M6335 3884 c-210 -51 -385 -221 -452 -439 -28 -93 -25 -327 6 -415
58 -168 166 -295 312 -368 115 -58 182 -73 314 -73 171 0 301 44 404 137 44
40 51 51 51 84 0 28 -8 46 -29 69 -43 46 -99 44 -177 -9 -70 -47 -153 -70
-249 -70 -276 0 -458 228 -417 522 30 214 174 353 378 366 128 8 207 -21 318
-117 40 -35 54 -41 92 -41 63 0 104 40 104 102 0 40 -4 47 -67 106 -74 69
-171 122 -268 147 -74 19 -239 18 -320 -1z"/>
<path d="M715 3864 c-363 -68 -584 -412 -511 -796 39 -202 151 -354 331 -447
104 -54 162 -61 538 -61 299 0 342 2 367 17 54 32 55 38 55 402 0 319 -1 340
-23 414 -28 97 -62 165 -119 240 -142 184 -397 277 -638 231z m270 -222 c51
-20 134 -73 162 -103 80 -88 130 -239 119 -358 -16 -174 -104 -304 -255 -374
-60 -28 -74 -31 -166 -31 -77 0 -112 5 -151 21 -172 68 -274 223 -274 417 0
143 42 247 136 338 50 49 139 96 205 107 67 12 171 4 224 -17z"/>
<path d="M2110 3854 c-206 -31 -326 -99 -384 -216 -37 -74 -37 -192 0 -266 56
-112 174 -180 414 -237 230 -54 312 -98 327 -174 24 -121 -47 -185 -228 -206
-128 -16 -280 32 -385 120 -60 51 -110 55 -165 13 -74 -57 -66 -130 23 -196
72 -54 118 -76 229 -109 85 -25 108 -28 249 -28 137 0 163 3 225 24 126 42
215 114 258 210 30 64 31 217 2 276 -60 123 -222 207 -502 261 -74 14 -162 47
-199 74 -35 26 -54 63 -54 106 0 93 98 148 260 147 114 -1 187 -24 266 -83 96
-72 147 -79 200 -26 19 19 34 41 34 50 0 56 -99 153 -208 203 -97 45 -264 71
-362 57z"/>
</g>
</svg>
