<svg id="svg" version="1.1" xmlns="http://www.w3.org/2000/svg" xmlns:xlink="http://www.w3.org/1999/xlink" width="400" height="225" viewBox="0, 0, 400,225"><g id="svgg"><path id="path0" d="M55.259 88.281 L 55.313 176.563 55.801 177.555 C 57.443 180.890,62.261 180.167,63.109 176.458 C 63.254 175.824,63.325 147.148,63.328 87.760 L 63.333 0.000 59.270 0.000 L 55.206 0.000 55.259 88.281 M340.468 91.335 L 340.521 182.670 341.168 183.470 C 343.030 185.774,346.319 185.599,347.706 183.122 L 348.229 182.188 348.282 91.094 L 348.335 0.000 344.375 0.000 L 340.415 0.000 340.468 91.335 M208.750 210.561 C 208.353 210.703,207.917 211.248,207.917 211.602 C 207.917 212.025,208.272 211.924,208.391 211.468 C 208.516 210.993,209.505 210.682,209.966 210.973 C 211.019 211.637,210.796 212.303,209.217 213.209 C 208.279 213.747,207.708 214.428,207.708 215.010 C 207.708 215.119,208.458 215.208,209.375 215.208 C 211.014 215.208,211.042 215.200,211.042 214.688 C 211.042 214.401,210.948 214.167,210.833 214.167 C 210.719 214.167,210.625 214.307,210.625 214.479 C 210.625 214.720,210.356 214.792,209.457 214.792 C 208.477 214.792,208.309 214.738,208.415 214.462 C 208.485 214.281,208.542 214.095,208.542 214.049 C 208.542 214.003,209.007 213.730,209.576 213.441 C 211.844 212.292,211.106 209.719,208.750 210.561 M212.484 211.026 C 211.181 212.329,211.981 215.208,213.646 215.208 C 213.979 215.208,214.441 214.966,214.808 214.599 C 216.111 213.296,215.311 210.417,213.646 210.417 C 213.313 210.417,212.851 210.659,212.484 211.026 M216.823 210.830 C 216.508 211.077,216.250 211.414,216.250 211.578 C 216.250 212.016,216.618 211.939,216.767 211.469 C 217.044 210.598,218.650 210.674,218.874 211.568 C 219.028 212.179,218.729 212.604,217.828 213.059 C 215.596 214.186,215.638 215.208,217.917 215.208 C 219.556 215.208,219.583 215.200,219.583 214.688 C 219.583 214.115,219.280 213.986,219.091 214.479 C 218.957 214.830,216.667 214.943,216.667 214.599 C 216.667 214.387,217.415 213.771,218.542 213.055 C 219.825 212.239,219.579 210.733,218.124 210.497 C 217.570 210.407,217.258 210.487,216.823 210.830 M220.917 210.902 C 220.247 211.478,219.996 213.278,220.463 214.160 C 221.325 215.790,223.509 215.317,223.814 213.434 C 224.170 211.246,222.358 209.663,220.917 210.902 M195.758 210.978 C 195.524 211.213,195.615 211.458,195.938 211.458 C 196.109 211.458,196.250 211.370,196.250 211.262 C 196.250 211.000,195.925 210.811,195.758 210.978 M214.568 211.382 C 215.468 212.526,214.855 214.792,213.646 214.792 C 212.921 214.792,212.292 213.872,212.292 212.813 C 212.292 211.753,212.921 210.833,213.646 210.833 C 213.928 210.833,214.320 211.067,214.568 211.382 M222.909 211.289 C 223.503 211.928,223.508 213.783,222.917 214.375 C 221.894 215.397,220.729 214.565,220.729 212.813 C 220.729 211.040,221.908 210.216,222.909 211.289 M176.761 211.553 C 176.394 211.920,176.252 212.287,176.257 212.855 C 176.277 215.268,179.548 215.471,179.929 213.083 C 180.192 211.431,177.961 210.354,176.761 211.553 M179.280 211.761 C 180.018 212.499,179.885 213.619,178.976 214.316 C 178.018 215.052,176.458 214.216,176.458 212.967 C 176.458 211.397,178.180 210.661,179.280 211.761 M190.208 211.649 C 190.208 211.869,190.091 212.096,189.948 212.154 C 189.740 212.238,189.740 212.262,189.948 212.275 C 190.112 212.286,190.209 212.618,190.211 213.177 C 190.216 214.821,190.987 215.763,191.724 215.026 C 191.898 214.852,191.819 214.792,191.418 214.792 C 190.401 214.792,190.185 212.313,191.198 212.263 C 191.724 212.237,191.730 212.227,191.278 212.141 C 191.007 212.090,190.738 211.868,190.681 211.649 C 190.546 211.132,190.208 211.132,190.208 211.649 M177.333 212.125 C 176.708 212.751,177.180 213.958,178.050 213.958 C 178.307 213.958,178.567 213.878,178.627 213.780 C 178.688 213.682,178.524 213.643,178.262 213.693 C 177.679 213.804,177.236 213.318,177.328 212.668 C 177.386 212.259,177.512 212.191,178.172 212.211 C 178.598 212.224,178.897 212.153,178.836 212.055 C 178.672 211.788,177.621 211.837,177.333 212.125 M183.385 212.085 C 182.697 212.369,182.814 212.491,183.644 212.356 C 184.408 212.232,185.000 212.533,185.000 213.046 C 185.000 213.225,184.768 213.333,184.385 213.333 C 183.456 213.333,182.708 213.748,182.708 214.263 C 182.708 215.168,183.656 215.501,184.516 214.899 C 184.907 214.625,184.971 214.625,185.076 214.899 C 185.209 215.243,185.833 215.327,185.833 215.000 C 185.833 214.885,185.740 214.792,185.625 214.792 C 185.510 214.792,185.417 214.288,185.417 213.671 C 185.417 212.226,184.598 211.586,183.385 212.085 M187.060 212.274 C 186.442 212.781,186.686 213.326,187.676 213.656 C 188.038 213.777,188.438 213.980,188.565 214.107 C 189.198 214.739,187.733 215.067,187.048 214.447 C 186.687 214.120,186.667 214.134,186.670 214.707 C 186.672 215.065,186.738 215.210,186.832 215.063 C 186.936 214.899,187.095 214.880,187.297 215.008 C 188.052 215.485,189.267 214.947,189.123 214.199 C 189.088 214.015,188.638 213.709,188.123 213.519 C 187.472 213.279,187.188 213.055,187.188 212.785 C 187.188 212.258,188.046 212.155,188.559 212.620 C 188.940 212.965,188.958 212.962,188.958 212.567 C 188.958 212.339,188.841 212.152,188.698 212.151 C 188.555 212.150,188.240 212.085,187.998 212.007 C 187.705 211.913,187.391 212.002,187.060 212.274 M198.191 212.087 C 196.687 212.686,197.227 215.208,198.859 215.208 C 199.335 215.208,200.522 214.395,200.064 214.382 C 199.928 214.378,199.758 214.469,199.688 214.583 C 199.232 215.320,197.708 214.532,197.708 213.559 C 197.708 212.458,199.093 211.846,199.632 212.708 C 199.976 213.260,200.208 213.236,200.208 212.649 C 200.208 212.337,200.083 212.170,199.844 212.166 C 199.643 212.162,199.292 212.102,199.063 212.032 C 198.833 211.962,198.441 211.987,198.191 212.087 M192.656 212.221 C 192.972 212.349,193.022 214.792,192.708 214.792 C 192.594 214.792,192.500 214.885,192.500 215.000 C 192.500 215.115,192.781 215.208,193.125 215.208 C 193.469 215.208,193.750 215.115,193.750 215.000 C 193.750 214.885,193.648 214.792,193.523 214.792 C 193.384 214.792,193.313 214.407,193.341 213.802 C 193.415 212.215,193.378 212.082,192.865 212.100 C 192.607 212.109,192.513 212.164,192.656 212.221 M193.750 212.396 C 193.426 212.786,193.693 212.786,194.375 212.396 C 194.866 212.115,194.870 212.098,194.453 212.091 C 194.209 212.087,193.893 212.224,193.750 212.396 M195.365 212.221 C 195.680 212.349,195.730 214.792,195.417 214.792 C 195.302 214.792,195.208 214.885,195.208 215.000 C 195.208 215.115,195.536 215.208,195.938 215.208 C 196.339 215.208,196.667 215.115,196.667 215.000 C 196.667 214.885,196.526 214.792,196.354 214.792 C 196.108 214.792,196.042 214.502,196.042 213.438 C 196.042 212.167,196.013 212.084,195.573 212.100 C 195.315 212.109,195.221 212.164,195.365 212.221 M202.917 213.542 C 202.917 213.656,203.385 213.750,203.958 213.750 C 204.531 213.750,205.000 213.656,205.000 213.542 C 205.000 213.427,204.531 213.333,203.958 213.333 C 203.385 213.333,202.917 213.427,202.917 213.542 M185.000 213.917 C 185.000 214.459,184.586 214.792,183.910 214.792 C 183.173 214.792,182.899 214.222,183.443 213.824 C 184.026 213.398,185.000 213.456,185.000 213.917 " stroke="none" fill="#74bcc4" fill-rule="evenodd"></path><path id="path1" d="M0.000 112.500 L 0.000 225.000 200.000 225.000 L 400.000 225.000 400.000 112.500 L 400.000 0.000 380.521 0.000 L 361.042 0.000 361.042 81.745 C 361.042 154.675,361.007 163.587,360.722 164.395 C 359.508 167.835,354.957 168.075,353.202 164.792 C 352.824 164.083,352.811 161.717,352.759 82.031 L 352.706 0.000 350.520 0.000 L 348.335 0.000 348.282 91.317 L 348.229 182.635 347.727 183.367 C 345.985 185.909,342.301 185.770,340.729 183.103 C 340.314 182.399,340.312 181.973,340.259 91.198 L 340.206 0.000 337.707 0.000 L 335.208 0.000 335.207 82.865 C 335.206 142.140,335.141 165.966,334.978 166.563 C 333.919 170.441,328.367 170.550,327.301 166.712 C 327.154 166.185,327.085 139.398,327.084 82.969 L 327.083 0.000 324.271 0.000 L 321.458 0.000 321.458 96.761 C 321.458 166.333,321.394 193.821,321.229 194.590 C 320.440 198.269,315.407 198.925,313.837 195.553 L 313.337 194.479 313.335 97.240 L 313.333 0.000 310.625 0.000 L 307.917 0.000 307.917 90.007 C 307.917 170.775,307.884 180.093,307.594 180.785 C 306.197 184.130,301.707 184.222,300.187 180.938 C 299.813 180.130,299.801 177.260,299.796 90.052 L 299.792 0.000 201.875 0.000 L 103.958 0.000 103.958 91.344 C 103.958 154.849,103.891 183.001,103.738 183.717 C 102.946 187.407,97.984 188.072,96.196 184.728 L 95.729 183.854 95.676 91.927 L 95.623 0.000 92.916 0.000 L 90.208 0.000 90.208 81.552 C 90.208 140.066,90.144 163.406,89.979 164.173 C 89.160 167.992,84.072 168.630,82.475 165.113 C 82.106 164.301,82.092 161.371,82.088 82.135 L 82.083 0.000 79.479 0.000 L 76.875 0.000 76.874 97.865 C 76.873 162.782,76.802 195.983,76.663 196.483 C 75.569 200.424,70.044 200.589,68.968 196.712 C 68.821 196.184,68.752 164.716,68.751 97.969 L 68.750 0.000 66.042 0.000 L 63.333 0.000 63.329 88.281 C 63.324 186.897,63.468 177.374,61.953 178.789 C 59.967 180.644,56.784 179.946,55.603 177.396 C 55.230 176.589,55.217 173.766,55.213 88.281 L 55.208 0.000 51.875 0.000 L 48.542 0.000 48.541 82.031 C 48.540 138.630,48.472 164.306,48.321 164.849 C 47.451 167.980,42.917 168.756,41.116 166.083 C 40.184 164.701,40.208 166.961,40.208 81.656 L 40.208 0.000 20.104 0.000 L 0.000 0.000 0.000 112.500 M210.895 211.080 C 211.509 211.905,211.102 212.744,209.728 213.490 C 208.281 214.275,208.236 214.583,209.566 214.583 C 210.148 214.583,210.625 214.490,210.625 214.375 C 210.625 214.260,210.766 214.167,210.938 214.167 C 211.132 214.167,211.250 214.363,211.250 214.688 C 211.250 215.202,211.229 215.208,209.479 215.208 C 206.969 215.208,206.987 214.414,209.531 212.836 C 210.038 212.521,210.417 212.127,210.417 211.914 C 210.417 210.948,208.910 210.671,208.504 211.563 C 208.229 212.166,207.708 212.260,207.708 211.706 C 207.708 210.397,210.045 209.938,210.895 211.080 M214.595 210.631 C 215.169 210.938,215.625 211.932,215.625 212.876 C 215.625 215.674,212.097 216.119,211.728 213.366 C 211.435 211.182,212.941 209.746,214.595 210.631 M219.101 210.870 C 220.019 211.732,219.669 212.599,218.022 213.541 C 216.603 214.353,216.580 214.583,217.917 214.583 C 218.490 214.583,218.958 214.490,218.958 214.375 C 218.958 214.260,219.099 214.167,219.271 214.167 C 219.465 214.167,219.583 214.363,219.583 214.688 C 219.583 215.202,219.563 215.208,217.813 215.208 C 215.388 215.208,215.436 214.299,217.939 212.808 C 219.012 212.169,218.968 211.173,217.864 211.081 C 217.183 211.025,217.056 211.087,216.873 211.567 C 216.673 212.093,216.250 212.189,216.101 211.741 C 215.744 210.669,218.145 209.972,219.101 210.870 M223.419 211.058 C 224.667 212.541,223.827 215.208,222.111 215.208 C 220.657 215.208,219.772 213.884,220.091 212.184 C 220.422 210.418,222.336 209.770,223.419 211.058 M179.531 211.567 C 180.470 212.647,180.020 214.338,178.675 214.782 C 176.963 215.347,175.452 213.487,176.332 211.898 C 176.979 210.731,178.654 210.558,179.531 211.567 M196.250 211.134 C 196.250 211.561,195.819 211.772,195.615 211.443 C 195.521 211.290,195.490 211.091,195.547 211.000 C 195.722 210.716,196.250 210.817,196.250 211.134 M190.773 211.458 C 190.833 211.689,191.057 211.875,191.274 211.875 C 191.490 211.875,191.667 212.016,191.667 212.188 C 191.667 212.364,191.480 212.500,191.239 212.500 C 190.854 212.500,190.818 212.609,190.875 213.594 C 190.931 214.567,190.988 214.688,191.402 214.688 C 192.051 214.688,192.006 215.089,191.348 215.171 C 190.517 215.275,190.208 214.875,190.208 213.695 C 190.208 212.941,190.107 212.575,189.844 212.382 C 189.497 212.126,189.497 212.106,189.844 211.972 C 190.044 211.894,190.208 211.653,190.208 211.436 C 190.208 210.913,190.635 210.929,190.773 211.458 M212.827 211.369 C 211.970 212.227,212.488 214.583,213.534 214.583 C 214.444 214.583,214.792 214.099,214.792 212.830 C 214.792 211.260,213.728 210.469,212.827 211.369 M221.166 211.493 C 220.336 212.677,220.979 214.657,222.155 214.543 C 223.667 214.396,223.661 211.231,222.148 211.082 C 221.663 211.034,221.414 211.139,221.166 211.493 M177.368 211.489 C 175.935 212.197,176.440 214.375,178.036 214.375 C 179.935 214.375,180.193 211.776,178.333 211.380 C 178.047 211.319,177.612 211.368,177.368 211.489 M178.629 211.793 C 178.810 211.863,178.958 212.050,178.958 212.210 C 178.958 212.561,178.710 212.585,178.389 212.264 C 177.985 211.860,177.465 212.227,177.538 212.863 C 177.596 213.366,177.688 213.434,178.281 213.407 C 179.039 213.372,179.166 213.624,178.555 213.951 C 177.983 214.257,177.764 214.223,177.292 213.750 C 176.287 212.746,177.289 211.279,178.629 211.793 M185.097 212.156 C 185.366 212.353,185.511 212.791,185.579 213.615 C 185.633 214.262,185.759 214.792,185.859 214.792 C 185.960 214.792,186.042 214.885,186.042 215.000 C 186.042 215.115,185.807 215.208,185.521 215.208 C 185.234 215.208,185.000 215.103,185.000 214.974 C 185.000 214.812,184.920 214.806,184.740 214.954 C 184.596 215.072,184.292 215.188,184.063 215.212 C 182.067 215.424,181.993 213.568,183.984 213.249 C 185.055 213.078,184.952 212.614,183.835 212.577 C 182.620 212.538,182.569 212.513,183.009 212.181 C 183.515 211.798,184.589 211.785,185.097 212.156 M189.167 212.545 C 189.167 212.922,189.057 213.125,188.854 213.125 C 188.682 213.125,188.542 212.995,188.542 212.837 C 188.542 212.527,187.977 212.304,187.552 212.447 C 187.010 212.629,187.325 213.101,188.177 213.384 C 189.864 213.945,189.439 215.222,187.580 215.179 C 186.479 215.154,185.687 213.958,186.771 213.958 C 186.943 213.958,187.083 214.097,187.083 214.267 C 187.083 214.647,188.075 214.925,188.372 214.628 C 188.674 214.326,188.440 214.030,187.764 213.860 C 185.978 213.412,186.303 211.841,188.165 211.922 C 189.111 211.963,189.167 211.998,189.167 212.545 M193.333 212.199 C 193.333 212.493,193.377 212.493,193.796 212.199 C 194.051 212.021,194.426 211.875,194.630 211.875 C 195.258 211.875,195.039 212.402,194.323 212.613 C 193.637 212.815,193.107 214.792,193.739 214.792 C 193.859 214.792,193.958 214.885,193.958 215.000 C 193.958 215.115,193.583 215.208,193.125 215.208 C 192.667 215.208,192.292 215.115,192.292 215.000 C 192.292 214.885,192.385 214.792,192.500 214.792 C 192.615 214.792,192.708 214.282,192.708 213.658 C 192.708 213.035,192.615 212.467,192.500 212.396 C 192.116 212.159,192.286 211.875,192.813 211.875 C 193.145 211.875,193.333 211.992,193.333 212.199 M196.250 213.333 C 196.250 214.167,196.339 214.792,196.458 214.792 C 196.573 214.792,196.667 214.885,196.667 215.000 C 196.667 215.115,196.339 215.208,195.938 215.208 C 195.536 215.208,195.208 215.115,195.208 215.000 C 195.208 214.885,195.302 214.792,195.417 214.792 C 195.531 214.792,195.625 214.276,195.625 213.646 C 195.625 213.016,195.531 212.500,195.417 212.500 C 195.302 212.500,195.208 212.359,195.208 212.188 C 195.208 211.993,195.405 211.875,195.729 211.875 C 196.235 211.875,196.250 211.917,196.250 213.333 M200.208 212.649 C 200.208 213.429,200.009 213.521,199.632 212.917 C 199.001 211.906,197.467 212.880,197.899 214.017 C 198.164 214.712,198.840 214.917,199.482 214.496 C 200.104 214.089,200.208 214.085,200.208 214.472 C 200.208 215.258,198.233 215.486,197.589 214.775 C 196.454 213.520,197.394 211.843,199.189 211.921 C 200.193 211.965,200.208 211.976,200.208 212.649 M205.208 213.438 C 205.208 213.785,203.038 213.907,202.830 213.571 C 202.629 213.245,202.972 213.125,204.097 213.125 C 204.946 213.125,205.208 213.199,205.208 213.438 M183.403 214.077 C 183.334 214.256,183.382 214.507,183.508 214.633 C 183.814 214.939,184.792 214.507,184.792 214.067 C 184.792 213.629,183.572 213.637,183.403 214.077 " stroke="none" fill="#fbfbfb" fill-rule="evenodd"></path><path id="path2" d="M95.833 91.834 L 95.833 183.668 96.351 184.699 C 97.693 187.373,101.346 187.625,103.054 185.160 L 103.646 184.306 103.699 92.153 L 103.751 -0.000 99.792 -0.000 L 95.833 0.000 95.833 91.834 M299.843 90.156 L 299.896 180.313 300.342 181.146 C 301.839 183.939,305.765 183.998,307.292 181.250 L 307.813 180.313 307.866 90.156 L 307.919 0.000 303.854 0.000 L 299.789 0.000 299.843 90.156 " stroke="none" fill="#ac64cc" fill-rule="evenodd"></path><path id="path3" d="M40.417 81.941 C 40.417 172.721,40.299 165.346,41.767 166.636 C 43.569 168.218,46.376 167.872,47.708 165.904 L 48.229 165.135 48.282 82.567 L 48.335 -0.000 44.376 -0.000 L 40.417 0.000 40.417 81.941 M352.918 81.719 C 352.919 137.288,352.988 163.685,353.134 164.212 C 354.005 167.348,357.983 167.996,360.092 165.345 L 360.729 164.545 360.782 82.272 L 360.835 0.000 356.876 0.000 L 352.917 0.000 352.918 81.719 " stroke="none" fill="#0c1c34" fill-rule="evenodd"></path><path id="path4" d="M40.311 81.875 C 40.311 126.964,40.335 145.409,40.365 122.865 C 40.394 100.320,40.394 63.430,40.365 40.885 C 40.335 18.341,40.311 36.786,40.311 81.875 M82.088 82.135 C 82.092 161.371,82.106 164.301,82.475 165.113 C 84.072 168.630,89.160 167.992,89.979 164.173 C 90.144 163.406,90.208 140.066,90.208 81.552 L 90.208 0.000 86.146 0.000 L 82.083 0.000 82.088 82.135 M95.728 91.563 C 95.728 141.979,95.752 162.573,95.781 137.327 C 95.810 112.080,95.810 70.830,95.781 45.660 C 95.752 20.490,95.728 41.146,95.728 91.563 M103.853 91.563 C 103.853 141.979,103.877 162.573,103.906 137.327 C 103.935 112.080,103.935 70.830,103.906 45.660 C 103.877 20.490,103.853 41.146,103.853 91.563 M313.335 97.240 L 313.337 194.479 313.837 195.553 C 315.407 198.925,320.440 198.269,321.229 194.590 C 321.394 193.821,321.458 166.333,321.458 96.761 L 321.458 0.000 317.396 0.000 L 313.333 0.000 313.335 97.240 " stroke="none" fill="#e3bbdc" fill-rule="evenodd"></path><path id="path5" d="M68.751 97.969 C 68.752 164.716,68.821 196.184,68.968 196.712 C 70.044 200.589,75.569 200.424,76.663 196.483 C 76.802 195.983,76.873 162.782,76.874 97.865 L 76.875 0.000 72.813 0.000 L 68.750 0.000 68.751 97.969 M327.084 82.969 C 327.085 139.398,327.154 166.185,327.301 166.712 C 328.367 170.550,333.919 170.441,334.978 166.563 C 335.141 165.966,335.206 142.140,335.207 82.865 L 335.208 0.000 331.146 0.000 L 327.083 0.000 327.084 82.969 M192.705 213.603 L 192.807 214.896 192.874 213.772 C 192.910 213.154,192.865 212.573,192.772 212.480 C 192.680 212.387,192.650 212.892,192.705 213.603 M185.476 213.854 C 185.478 214.427,185.518 214.637,185.566 214.320 C 185.614 214.003,185.613 213.535,185.563 213.278 C 185.514 213.022,185.475 213.281,185.476 213.854 M193.386 214.063 C 193.388 214.521,193.431 214.684,193.481 214.425 C 193.531 214.166,193.529 213.791,193.476 213.591 C 193.424 213.392,193.384 213.604,193.386 214.063 M208.522 214.648 C 208.616 214.741,209.150 214.786,209.711 214.749 L 210.729 214.681 209.541 214.580 C 208.888 214.525,208.429 214.555,208.522 214.648 M217.344 214.733 C 217.659 214.780,218.174 214.780,218.490 214.733 C 218.805 214.685,218.547 214.646,217.917 214.646 C 217.286 214.646,217.029 214.685,217.344 214.733 " stroke="none" fill="#c4f3fb" fill-rule="evenodd"></path><path id="path6" d="M340.312 90.729 C 340.312 140.688,340.335 161.094,340.365 136.077 C 340.394 111.060,340.394 70.185,340.365 45.243 C 340.335 20.302,340.312 40.771,340.312 90.729 M179.086 211.421 C 179.018 211.530,179.095 211.729,179.256 211.863 C 179.488 212.055,179.540 212.039,179.503 211.788 C 179.440 211.358,179.236 211.178,179.086 211.421 M190.691 211.563 C 190.720 211.845,190.900 211.990,191.252 212.013 C 191.687 212.042,191.697 212.031,191.315 211.948 C 191.064 211.894,190.812 211.691,190.754 211.498 C 190.678 211.244,190.661 211.263,190.691 211.563 M188.628 212.112 C 188.534 212.264,188.568 212.300,188.718 212.207 C 188.871 212.113,188.958 212.220,188.958 212.500 C 188.958 212.780,188.871 212.887,188.718 212.793 C 188.568 212.700,188.534 212.736,188.628 212.888 C 188.834 213.220,189.167 212.981,189.167 212.500 C 189.167 212.019,188.834 211.780,188.628 212.112 M195.564 212.021 C 195.974 212.100,196.031 212.261,196.096 213.503 L 196.168 214.896 196.209 213.385 L 196.250 211.875 195.677 211.903 C 195.200 211.927,195.181 211.947,195.564 212.021 M211.719 212.813 C 211.722 213.271,211.764 213.434,211.814 213.175 C 211.864 212.916,211.862 212.541,211.810 212.341 C 211.758 212.142,211.717 212.354,211.719 212.813 M190.687 213.333 C 190.687 213.964,190.726 214.221,190.774 213.906 C 190.822 213.591,190.822 213.076,190.774 212.760 C 190.726 212.445,190.687 212.703,190.687 213.333 M203.125 213.242 C 203.856 213.404,205.165 213.432,205.074 213.285 C 205.020 213.197,204.489 213.136,203.894 213.149 C 203.299 213.162,202.953 213.204,203.125 213.242 M178.446 213.527 C 178.304 213.758,178.633 214.006,178.825 213.814 C 179.023 213.616,178.986 213.333,178.762 213.333 C 178.654 213.333,178.512 213.421,178.446 213.527 M184.010 213.685 C 184.211 213.738,184.539 213.738,184.740 213.685 C 184.940 213.633,184.776 213.590,184.375 213.590 C 183.974 213.590,183.810 213.633,184.010 213.685 M186.538 214.259 C 186.475 214.424,186.467 214.729,186.521 214.936 C 186.583 215.177,186.627 215.102,186.642 214.727 C 186.658 214.342,186.749 214.193,186.907 214.291 C 187.056 214.383,187.091 214.348,186.999 214.199 C 186.802 213.879,186.678 213.896,186.538 214.259 " stroke="none" fill="#9dced1" fill-rule="evenodd"></path><path id="path7" d="M48.436 82.083 C 48.436 127.286,48.460 145.779,48.490 123.177 C 48.519 100.576,48.519 63.591,48.490 40.990 C 48.460 18.388,48.436 36.880,48.436 82.083 M360.936 81.667 C 360.936 126.641,360.960 145.039,360.990 122.552 C 361.019 100.065,361.019 63.268,360.990 40.781 C 360.960 18.294,360.936 36.693,360.936 81.667 " stroke="none" fill="#88909c" fill-rule="evenodd"></path><path id="path8" d="M352.811 81.563 C 352.811 126.479,352.835 144.823,352.865 122.327 C 352.894 99.830,352.894 63.080,352.865 40.660 C 352.835 18.240,352.811 36.646,352.811 81.563 " stroke="none" fill="#c4c4cc" fill-rule="evenodd"></path></g></svg>