<svg id="Ebene_1" data-name="Ebene 1" xmlns="http://www.w3.org/2000/svg" width="2060" height="1500" viewBox="0 0 2060 1500">
  <title>3</title>
  <rect width="2060" height="1500" fill="#0045d4" stroke="#000" stroke-miterlimit="10"/>
  <line x1="1603" y1="767" x2="1603" y2="1500" fill="none" stroke="#fff" stroke-linecap="round" stroke-width="3"/>
  <path d="M1557,860c17.5-4.2,34.6-16.8,46-32,11.4,15.2,28.5,27.8,46,32" fill="none" stroke="#fff" stroke-linecap="round" stroke-width="3"/>
  <path d="M1573,804c11.4-5.1,22.6-20.5,30-39,7.4,18.5,18.6,33.9,30,39" fill="none" stroke="#fff" stroke-linecap="round" stroke-width="3"/>
  <path d="M1543,920c22.8-5.5,45.2-22.1,60-42,14.8,19.9,37.1,36.5,60,42" fill="none" stroke="#fff" stroke-linecap="round" stroke-width="3"/>
  <path d="M1543,1201c22.8-5.5,45.2-22.1,60-42,14.8,19.9,37.1,36.5,60,42" fill="none" stroke="#fff" stroke-linecap="round" stroke-width="3"/>
  <path d="M1530,992c27.8-6.8,55-27.3,73-52,18,24.7,45.2,45.2,73,52" fill="none" stroke="#fff" stroke-linecap="round" stroke-width="3"/>
  <path d="M1530,1137c27.8-6.8,55-27.3,73-52,18,24.7,45.2,45.2,73,52" fill="none" stroke="#fff" stroke-linecap="round" stroke-width="3"/>
  <path d="M1530,1065c27.8-6.8,54.9-27.3,72.9-52a151.31,151.31,0,0,0,48.1,42" fill="none" stroke="#fff" stroke-linecap="round" stroke-width="3"/>
  <path d="M1818,1074a82,82,0,1,1,82,82h0a82,82,0,0,1-82-82Z" fill="none" stroke="#fff" stroke-linecap="round" stroke-width="3"/>
  <path d="M1651,1049a74,74,0,1,1,74,74h0a74,74,0,0,1-74-73.92Z" fill="none" stroke="#fff" stroke-linecap="round" stroke-width="3"/>
  <path d="M1782,120a82,82,0,1,1-82,82,82,82,0,0,1,82-82Z" fill="none" stroke="#fff" stroke-linecap="round" stroke-width="3"/>
  <line x1="1900" y1="1067" x2="1900" y2="1500" fill="none" stroke="#fff" stroke-linecap="round" stroke-width="3"/>
  <line x1="1725" y1="1039" x2="1725" y2="1500" fill="none" stroke="#fff" stroke-linecap="round" stroke-width="3"/>
  <polyline points="1936 1088 1900 1122 1864 1088" fill="none" stroke="#fff" stroke-linecap="round" stroke-width="3"/>
  <path d="M88,914a82,82,0,1,1,82,82,82,82,0,0,1-82-82Z" fill="none" stroke="#fff" stroke-linecap="round" stroke-width="3"/>
  <line x1="170" y1="907" x2="170" y2="1500" fill="none" stroke="#fff" stroke-linecap="round" stroke-width="3"/>
  <polyline points="206 928 170 962 134 928" fill="none" stroke="#fff" stroke-linecap="round" stroke-width="3"/>
  <polyline points="1761 1055 1725 1089 1689 1055" fill="none" stroke="#fff" stroke-linecap="round" stroke-width="3"/>
  <line x1="1782" y1="197" x2="1782" y2="1002" fill="none" stroke="#fff" stroke-linecap="round" stroke-width="3"/>
  <line x1="1781" y1="1097" x2="1781" y2="1500" fill="none" stroke="#fff" stroke-linecap="round" stroke-width="3"/>
  <polyline points="1746 218 1782 252 1818 218" fill="none" stroke="#fff" stroke-linecap="round" stroke-width="3"/>
  <line x1="1147" y1="1120" x2="1147" y2="1500" fill="none" stroke="#fff" stroke-linecap="round" stroke-width="3"/>
  <path d="M1103,1211c16.8-4.1,33.1-16.3,44-31,10.9,14.7,27.2,26.9,44,31" fill="none" stroke="#fff" stroke-linecap="round" stroke-width="3"/>
  <path d="M1103,1396c16.8-4.1,33.1-16.3,44-31,10.9,14.7,27.2,26.9,44,31" fill="none" stroke="#fff" stroke-linecap="round" stroke-width="3"/>
  <path d="M1118,1156c11-4.9,21.8-19.4,29-37,7.2,17.6,18,32.1,29,37" fill="none" stroke="#fff" stroke-linecap="round" stroke-width="3"/>
  <path d="M1089,1269c21.9-5.2,43.8-21,58-40,14.2,19,36.1,34.8,58,40" fill="none" stroke="#fff" stroke-linecap="round" stroke-width="3"/>
  <path d="M1076,1343c39.5-8.3,71-50,71-50,15.3,21,37.1,38.9,60.5,47.3" fill="none" stroke="#fff" stroke-linecap="round" stroke-width="3"/>
  <path d="M1330,1308a65,65,0,1,0-65,65h0a65,65,0,0,0,65-65h0" fill="none" stroke="#fff" stroke-linecap="round" stroke-width="3"/>
  <line x1="1264" y1="1295" x2="1264" y2="1500" fill="none" stroke="#fff" stroke-linecap="round" stroke-width="3"/>
  <polyline points="1230 1313 1264 1346 1298 1313" fill="none" stroke="#fff" stroke-linecap="round" stroke-width="3"/>
  <path d="M404,1256a74,74,0,1,1,0,.08V1256" fill="none" stroke="#fff" stroke-linecap="round" stroke-width="3"/>
  <line x1="478" y1="1247" x2="478" y2="1501" fill="none" stroke="#fff" stroke-linecap="round" stroke-width="3"/>
  <polyline points="514 1263 479 1298 443 1263" fill="none" stroke="#fff" stroke-linecap="round" stroke-width="3"/>
  <line x1="361" y1="320" x2="361" y2="1500" fill="none" stroke="#fff" stroke-linecap="round" stroke-width="3"/>
  <path d="M301,761c22.7-5.5,45.3-22.2,60-42v-.2c14.7,19.8,36.4,36.7,59,42.2" fill="none" stroke="#fff" stroke-linecap="round" stroke-width="3"/>
  <path d="M301,841c22.7-5.5,45.3-21.8,60-41.6,14.7,19.8,37.3,36.1,60,41.6" fill="none" stroke="#fff" stroke-linecap="round" stroke-width="3"/>
  <path d="M315,899c17.4-4.2,34.7-17.7,46-33v.6c11.3,15.3,27.6,28.2,45,32.4" fill="none" stroke="#fff" stroke-linecap="round" stroke-width="3"/>
  <path d="M315,416c17.3-4.2,34.8-16.8,46-32,11.2,15.2,28.7,27.8,46,32" fill="none" stroke="#fff" stroke-linecap="round" stroke-width="3"/>
  <path d="M331,359c11.4-5.1,22.6-20.5,30-39,7.4,18.5,18.6,33.9,30,39" fill="none" stroke="#fff" stroke-linecap="round" stroke-width="3"/>
  <path d="M301,477c22.6-5.5,45.3-22.1,60-42,14.7,19.9,37.3,36.5,60,42" fill="none" stroke="#fff" stroke-linecap="round" stroke-width="3"/>
  <path d="M289,551c27.4-6.8,54.2-27.3,72-52,17.8,24.7,44.6,45.2,72,52" fill="none" stroke="#fff" stroke-linecap="round" stroke-width="3"/>
  <path d="M289,694c27.4-6.8,54.2-27.3,72-52,17.8,24.7,44.6,45.2,72,52" fill="none" stroke="#fff" stroke-linecap="round" stroke-width="3"/>
  <path d="M289,623c27.4-6.8,54.2-27.3,72-52,17.8,24.7,44.6,45.2,72,52" fill="none" stroke="#fff" stroke-linecap="round" stroke-width="3"/>
  <path d="M1458.5,437.78A29.2,29.2,0,0,0,1431.17,419c-16.17,0-28.93,14.41-34.17,29h0c-5.24-14.58-18.06-29-34.18-29a29.19,29.19,0,0,0-27.32,18.76" fill="none" stroke="#fff" stroke-width="3"/>
  <path d="M1312.5,394.25A21.16,21.16,0,0,0,1292.73,380c-11.67,0-20.94,10.93-24.73,22h0c-3.79-11.06-13.07-22-24.73-22a21.18,21.18,0,0,0-19.77,14.23" fill="none" stroke="#fff" stroke-width="3"/>
  <path d="M721.16,188.15a29.19,29.19,0,0,0-27.32-18.76c-16.12,0-28.94,14.42-34.18,29h0c-5.24-14.59-18-29-34.17-29a29.21,29.21,0,0,0-27.33,18.78" fill="none" stroke="#fff" stroke-width="3"/>
  <path d="M833.16,144.62a21.16,21.16,0,0,0-19.77-14.23c-11.66,0-20.94,10.94-24.73,22h0c-3.79-11.07-13.06-22-24.73-22a21.18,21.18,0,0,0-19.77,14.25" fill="none" stroke="#fff" stroke-width="3"/>
</svg>
